<?xml version="1.0" encoding="iso-8859-1"?>
<!-- Generator: Adobe Illustrator 19.0.0, SVG Export Plug-In . SVG Version: 6.00 Build 0)  -->
<svg xmlns="http://www.w3.org/2000/svg" xmlns:xlink="http://www.w3.org/1999/xlink" version="1.1" id="Layer_1" x="0px" y="0px" viewBox="0 0 512 512" style="enable-background:new 0 0 512 512;" xml:space="preserve">
<path style="fill:#ECEEF1;" d="M469.333,388.267H42.667V89.6c0-14.139,11.461-25.6,25.6-25.6h375.467  c14.139,0,25.6,11.461,25.6,25.6V388.267z"/>
<path style="fill:#D9DDE2;" d="M93.867,64h-25.6c-14.139,0-25.6,11.461-25.6,25.6v298.667h25.6V89.6  C68.267,75.461,79.728,64,93.867,64z"/>
<path style="fill:#69788D;" d="M443.733,64H68.267c-14.139,0-25.6,11.461-25.6,25.6v42.667h426.667V89.6  C469.333,75.461,457.872,64,443.733,64z"/>
<path style="fill:#56677E;" d="M93.867,64h-25.6c-14.139,0-25.6,11.461-25.6,25.6v42.667h25.6V89.6  C68.267,75.461,79.728,64,93.867,64z"/>
<path style="fill:#69788D;" d="M486.4,448H25.6C11.461,448,0,436.539,0,422.4v-42.667c0-4.713,3.821-8.533,8.533-8.533h494.933  c4.713,0,8.533,3.821,8.533,8.533V422.4C512,436.539,500.539,448,486.4,448z"/>
<g>
	<path style="fill:#56677E;" d="M25.6,422.4v-42.667c0-4.713,3.821-8.533,8.533-8.533h-25.6C3.821,371.2,0,375.021,0,379.733V422.4   C0,436.539,11.461,448,25.6,448h25.6C37.061,448,25.6,436.539,25.6,422.4z"/>
	<path style="fill:#56677E;" d="M281.6,413.867h-51.2c-9.426,0-17.067-7.641-17.067-17.067v-25.6h85.333v25.6   C298.667,406.226,291.026,413.867,281.6,413.867z"/>
</g>
<path style="fill:#7C899B;" d="M230.4,405.333c-4.705,0-8.533-3.828-8.533-8.533v-17.067h68.267V396.8  c0,4.705-3.828,8.533-8.533,8.533H230.4z"/>
<path style="fill:#56677E;" d="M264.533,106.667h-17.067c-4.713,0-8.533-3.821-8.533-8.533s3.821-8.533,8.533-8.533h17.067  c4.713,0,8.533,3.821,8.533,8.533S269.246,106.667,264.533,106.667z"/>
<path style="fill:#D9DDE2;" d="M116.294,291.743c-3.137-3.294-3.137-8.46,0-11.754c17.103-17.962,73.174-70.923,139.706-70.923  s122.603,52.961,139.706,70.924c3.137,3.294,3.137,8.46,0,11.754c-17.103,17.962-73.174,70.923-139.706,70.923  S133.397,309.706,116.294,291.743z"/>
<circle style="fill:#FF8C78;" cx="256" cy="285.867" r="68.267"/>
<path style="fill:#DB6B5E;" d="M281.6,337.067c-37.702,0-68.267-30.564-68.267-68.267c0-18.135,7.086-34.607,18.622-46.832  c-25.836,9.727-44.222,34.661-44.222,63.899c0,37.702,30.564,68.267,68.267,68.267c19.567,0,37.198-8.244,49.645-21.435  C298.164,335.515,290.065,337.067,281.6,337.067z"/>
<g>
	<circle style="fill:#FFD6C4;" cx="273.067" cy="243.2" r="8.533"/>
	<circle style="fill:#FFD6C4;" cx="290.133" cy="277.333" r="17.067"/>
</g>
<path style="fill:#C7CCD4;" d="M162.133,243.2c0-0.619,0.015-1.233,0.023-1.85c-21.731,14.567-37.959,30.339-45.862,38.639  c-3.137,3.294-3.137,8.46,0,11.754c15.906,16.705,65.516,63.669,125.897,70.166C195.253,342.934,162.133,296.938,162.133,243.2z"/>
<g>
	<path style="fill:#69788D;" d="M298.238,183.895c-2.185,0-4.368-0.833-6.034-2.5c-9.67-9.669-22.528-14.995-36.204-14.995   c-13.677,0-26.533,5.326-36.203,14.996c-3.332,3.333-8.735,3.332-12.068,0.001c-3.332-3.332-3.333-8.735,0-12.067   c12.893-12.896,30.035-19.997,48.271-19.997c18.236,0,35.379,7.101,48.272,19.996C309.525,174.582,305.698,183.895,298.238,183.895   z"/>
	<path style="fill:#69788D;" d="M231.865,201.998c-7.462,0-11.287-9.314-6.034-14.567c8.059-8.059,18.773-12.497,30.17-12.497   c11.398,0,22.111,4.438,30.17,12.498c3.332,3.332,3.332,8.735-0.001,12.067c-3.332,3.332-8.735,3.332-12.067-0.001   C269.267,194.662,262.838,192,256,192c-6.837,0-13.267,2.663-18.102,7.499C236.231,201.165,234.048,201.998,231.865,201.998z"/>
</g>
<g>
</g>
<g>
</g>
<g>
</g>
<g>
</g>
<g>
</g>
<g>
</g>
<g>
</g>
<g>
</g>
<g>
</g>
<g>
</g>
<g>
</g>
<g>
</g>
<g>
</g>
<g>
</g>
<g>
</g>
</svg>
