<?xml version="1.0" encoding="iso-8859-1"?>
<!-- Generator: Adobe Illustrator 19.0.0, SVG Export Plug-In . SVG Version: 6.00 Build 0)  -->
<svg xmlns="http://www.w3.org/2000/svg" xmlns:xlink="http://www.w3.org/1999/xlink" version="1.1" id="Layer_1" x="0px" y="0px" viewBox="0 0 512 512" style="enable-background:new 0 0 512 512;" xml:space="preserve">
<rect x="77.147" y="238.648" style="fill:#7C899B;" width="306.453" height="102.507"/>
<circle style="fill:#FFE9C4;" cx="230.373" cy="170.31" r="111.049"/>
<path style="fill:#F7C14D;" d="M230.373,153.226c44.537,0,82.943,26.223,100.641,64.067c6.674-14.27,10.408-30.188,10.408-46.982  c0-61.331-49.718-111.049-111.049-111.049S119.324,108.979,119.324,170.31c0,16.794,3.735,32.712,10.408,46.982  C147.43,179.449,185.836,153.226,230.373,153.226z"/>
<path style="fill:#D9DDE2;" d="M196.204,247.191h-51.253c-4.717,0-8.542-3.825-8.542-8.542v-51.253c0-4.717,3.825-8.542,8.542-8.542  h76.88c4.717,0,8.542,3.825,8.542,8.542v25.627C230.373,231.892,215.075,247.191,196.204,247.191z"/>
<g>
	<path style="fill:#56677E;" d="M221.831,178.853H200.12l-63.061,63.061c1.282,3.097,4.332,5.277,7.893,5.277h51.253   c18.871,0,34.169-15.298,34.169-34.169v-25.627C230.373,182.677,226.548,178.853,221.831,178.853z"/>
	<path style="fill:#56677E;" d="M144.951,178.853c-4.717,0-8.542,3.825-8.542,8.542v32.033l40.576-40.576H144.951z"/>
</g>
<path style="fill:#D9DDE2;" d="M264.542,247.191h51.253c4.717,0,8.542-3.825,8.542-8.542v-51.253c0-4.717-3.825-8.542-8.542-8.542  h-76.88c-4.717,0-8.542,3.825-8.542,8.542v25.627C230.373,231.892,245.671,247.191,264.542,247.191z"/>
<g>
	<path style="fill:#56677E;" d="M238.915,178.853c-4.717,0-8.542,3.825-8.542,8.542v25.627c0,9.617,3.976,18.302,10.372,24.509   l58.678-58.678H238.915z"/>
	<path style="fill:#56677E;" d="M321.649,181.186l-65.064,65.064c2.554,0.61,5.216,0.942,7.957,0.942h51.253   c4.717,0,8.542-3.825,8.542-8.542v-51.253C324.338,184.945,323.301,182.743,321.649,181.186z"/>
</g>
<path style="fill:#A1ABB8;" d="M330.598,43.556c-26.28-22.387-62.399-38.233-99.093-43.475c-0.751-0.108-1.514-0.108-2.265,0  c-36.695,5.243-72.813,21.089-99.093,43.475c-34.673,29.536-53,70.414-53,118.213v341.689c0,4.423,3.586,8.008,8.008,8.008h290.436  c4.424,0,8.008-3.586,8.008-8.008V161.768C383.599,113.969,365.272,73.091,330.598,43.556z M230.373,127.065  c36.544,0,77.414,29.454,77.414,68.872c0,41.066-26.119,82.734-34.703,93.965h-85.422c-8.59-11.216-34.703-52.801-34.703-93.965  C152.959,156.519,193.83,127.065,230.373,127.065z"/>
<path style="fill:#7C899B;" d="M77.147,503.458c0,4.423,3.586,8.008,8.008,8.008h290.436c4.424,0,8.008-3.586,8.008-8.008V289.902  H77.147V503.458z"/>
<g>
	<path style="fill:#56677E;" d="M257.068,341.689c0,4.423,3.585,8.008,8.008,8.008s8.008-3.586,8.008-8.008v-51.787h-16.017V341.689   z"/>
	<path style="fill:#56677E;" d="M188.73,340.621c0,4.423,3.586,8.008,8.008,8.008c4.423,0,8.008-3.586,8.008-8.008v-50.72H188.73   V340.621z"/>
</g>
<g>
	<path style="fill:#DB6B5E;" d="M196.738,333.147c-13.836,0-25.093,11.257-25.093,25.093c0,13.836,11.257,25.093,25.093,25.093   s25.093-11.257,25.093-25.093C221.831,344.403,210.574,333.147,196.738,333.147z"/>
	<path style="fill:#DB6B5E;" d="M265.076,333.147c-13.836,0-25.093,11.257-25.093,25.093c0,13.836,11.257,25.093,25.093,25.093   c13.836,0,25.093-11.257,25.093-25.093C290.169,344.403,278.912,333.147,265.076,333.147z"/>
</g>
<path style="fill:#8E9AA9;" d="M227.242,0.384c-36.004,5.525-71.291,21.191-97.094,43.171  c-34.674,29.536-53.001,70.414-53.001,118.213v128.133h21.262C100.742,175.065,149.984,72.085,227.242,0.384z"/>
<path style="fill:#69788D;" d="M98.409,289.902H77.147v213.556c0,4.423,3.586,8.008,8.008,8.008h72.624  C120.103,449.725,98.316,376.7,98.316,298.444C98.315,295.589,98.351,292.743,98.409,289.902z"/>
<g>
	<path style="fill:#3CBDE8;" d="M85.155,512h153.76v-51.253H76.613v42.711C76.613,508.176,80.438,512,85.155,512z"/>
	<path style="fill:#3CBDE8;" d="M443.929,512H230.373V349.697c0-9.436,7.648-17.084,17.084-17.084h187.929   c9.436,0,17.084,7.648,17.084,17.084v153.76C452.471,508.176,448.646,512,443.929,512z"/>
</g>
<g>
	<path style="fill:#2C9DD4;" d="M341.422,435.654c-13.836,0-25.093,11.257-25.093,25.093c0,13.836,11.257,25.093,25.093,25.093   c13.836,0,25.093-11.257,25.093-25.093C366.515,446.91,355.258,435.654,341.422,435.654z"/>
	<path style="fill:#2C9DD4;" d="M407.866,402.312c-2.049,0-4.099-0.782-5.662-2.346c-16.236-16.235-37.821-25.176-60.781-25.176   s-44.546,8.942-60.78,25.176c-3.128,3.128-8.198,3.128-11.325,0c-3.128-3.128-3.128-8.198,0-11.325   c19.26-19.261,44.867-29.868,72.105-29.868s52.845,10.607,72.106,29.867c3.128,3.128,3.128,8.198,0,11.325   C411.965,401.529,409.915,402.312,407.866,402.312z"/>
	<path style="fill:#2C9DD4;" d="M389.745,420.432c-2.049,0-4.099-0.782-5.662-2.346c-11.395-11.394-26.546-17.67-42.66-17.67   s-31.265,6.275-42.66,17.67c-3.128,3.128-8.198,3.129-11.325,0c-3.128-3.128-3.128-8.198,0-11.325   c14.42-14.42,33.592-22.361,53.985-22.361s39.564,7.941,53.985,22.361c3.128,3.128,3.128,8.197,0,11.325   C393.844,419.651,391.794,420.432,389.745,420.432z"/>
	<path style="fill:#2C9DD4;" d="M371.623,438.554c-2.049,0-4.099-0.782-5.663-2.346c-6.554-6.555-15.268-10.164-24.538-10.164   s-17.985,3.609-24.538,10.164c-3.129,3.128-8.197,3.128-11.326,0c-3.128-3.128-3.128-8.198,0-11.326   c9.579-9.58,22.317-14.856,35.865-14.856c13.548,0,26.286,5.276,35.865,14.856c3.128,3.128,3.126,8.198,0,11.326   C375.722,437.772,373.672,438.554,371.623,438.554z"/>
	<path style="fill:#2C9DD4;" d="M281.627,332.613h-34.169c-9.436,0-17.084,7.648-17.084,17.084V512h34.169V349.697   C264.542,340.262,272.192,332.613,281.627,332.613z"/>
</g>
<path style="fill:#FFE9C4;" d="M144.951,460.746h-76.88c-4.717,0-8.542-3.825-8.542-8.542v-42.711  c0-9.436,7.649-17.084,17.084-17.084h59.796c9.436,0,17.084,7.648,17.084,17.084v42.711  C153.493,456.923,149.668,460.746,144.951,460.746z"/>
<path style="fill:#F7C14D;" d="M59.529,452.204c0,4.717,3.825,8.542,8.542,8.542h76.88c4.717,0,8.542-3.825,8.542-8.542v-8.542  H59.529V452.204z"/>
<g>
	<path style="fill:#F09B24;" d="M80.884,426.577L80.884,426.577c2.359,0,4.271,1.912,4.271,4.271v29.898h-8.542v-29.898   C76.613,428.49,78.525,426.577,80.884,426.577z"/>
	<path style="fill:#F09B24;" d="M106.511,426.577L106.511,426.577c2.359,0,4.271,1.912,4.271,4.271v29.898h-8.542v-29.898   C102.24,428.49,104.152,426.577,106.511,426.577z"/>
	<path style="fill:#F09B24;" d="M132.138,426.577L132.138,426.577c2.359,0,4.271,1.912,4.271,4.271v29.898h-8.542v-29.898   C127.866,428.49,129.779,426.577,132.138,426.577z"/>
</g>
<g>
</g>
<g>
</g>
<g>
</g>
<g>
</g>
<g>
</g>
<g>
</g>
<g>
</g>
<g>
</g>
<g>
</g>
<g>
</g>
<g>
</g>
<g>
</g>
<g>
</g>
<g>
</g>
<g>
</g>
</svg>
