<?xml version="1.0" encoding="iso-8859-1"?>
<!-- Generator: Adobe Illustrator 19.0.0, SVG Export Plug-In . SVG Version: 6.00 Build 0)  -->
<svg xmlns="http://www.w3.org/2000/svg" xmlns:xlink="http://www.w3.org/1999/xlink" version="1.1" id="Layer_1" x="0px" y="0px" viewBox="0 0 512 512" style="enable-background:new 0 0 512 512;" xml:space="preserve">
<polygon style="fill:#3CBDE8;" points="221.867,401.067 290.133,401.067 298.667,503.467 213.333,503.467 "/>
<polygon style="fill:#2C9DD4;" points="290.133,401.067 221.867,401.067 218.993,435.555 293.007,435.555 "/>
<path style="fill:#D9DDE2;" d="M477.867,418.133H34.133C15.282,418.133,0,402.851,0,384V34.133C0,15.282,15.282,0,34.133,0h443.733  C496.718,0,512,15.282,512,34.133V384C512,402.851,496.718,418.133,477.867,418.133z"/>
<path style="fill:#C7CCD4;" d="M25.6,384V34.133C25.6,15.282,40.882,0,59.733,0h-25.6C15.282,0,0,15.282,0,34.133V384  c0,18.851,15.282,34.133,34.133,34.133h25.6C40.882,418.133,25.6,402.851,25.6,384z"/>
<path style="fill:#3CBDE8;" d="M0,384c0,18.851,15.282,34.133,34.133,34.133h443.733C496.718,418.133,512,402.851,512,384v-25.6H0  V384z"/>
<path style="fill:#2C9DD4;" d="M25.6,384v-25.6H0V384c0,18.851,15.282,34.133,34.133,34.133h25.6  C40.882,418.133,25.6,402.851,25.6,384z"/>
<path style="fill:#3CBDE8;" d="M477.867,0H34.133C15.282,0,0,15.282,0,34.133v25.6h512v-25.6C512,15.282,496.718,0,477.867,0z"/>
<path style="fill:#2C9DD4;" d="M59.733,0h-25.6C15.282,0,0,15.282,0,34.133v25.6h25.6v-25.6C25.6,15.282,40.882,0,59.733,0z"/>
<path style="fill:#2A7DB5;" d="M332.8,512H179.2c-4.713,0-8.533-3.821-8.533-8.533c0-4.713,3.821-8.533,8.533-8.533h153.6  c4.713,0,8.533,3.821,8.533,8.533C341.333,508.179,337.513,512,332.8,512z"/>
<g>
	<path style="fill:#DB6B5E;" d="M88.113,110.933l11.41-11.41c3.124-3.124,3.124-8.19,0-11.313c-3.124-3.124-8.19-3.124-11.313,0   L76.8,99.62L65.39,88.21c-3.124-3.124-8.19-3.124-11.313,0c-3.124,3.124-3.124,8.19,0,11.313l11.41,11.41l-11.41,11.41   c-3.124,3.124-3.124,8.19,0,11.313c1.562,1.562,3.61,2.343,5.657,2.343s4.095-0.781,5.657-2.343l11.41-11.41l11.41,11.41   c1.562,1.562,3.61,2.343,5.657,2.343c2.047,0,4.095-0.781,5.657-2.343c3.124-3.124,3.124-8.19,0-11.313L88.113,110.933z"/>
	<path style="fill:#DB6B5E;" d="M429.447,179.2l11.41-11.41c3.124-3.124,3.124-8.19,0-11.313c-3.125-3.124-8.19-3.124-11.314,0   l-11.41,11.409l-11.409-11.409c-3.125-3.124-8.19-3.124-11.314,0c-3.124,3.124-3.124,8.19,0,11.313l11.409,11.41l-11.41,11.41   c-3.124,3.124-3.124,8.19,0,11.313c1.563,1.562,3.611,2.343,5.658,2.343s4.095-0.781,5.658-2.343l11.409-11.409l11.409,11.409   c1.563,1.562,3.611,2.343,5.658,2.343s4.095-0.781,5.658-2.343c3.124-3.124,3.124-8.19,0-11.313L429.447,179.2z"/>
	<path style="fill:#DB6B5E;" d="M139.313,290.133l11.41-11.41c3.124-3.124,3.124-8.19,0-11.313c-3.124-3.124-8.19-3.124-11.313,0   L128,278.82l-11.41-11.41c-3.124-3.124-8.19-3.124-11.313,0c-3.124,3.124-3.124,8.19,0,11.313l11.41,11.41l-11.41,11.41   c-3.124,3.124-3.124,8.19,0,11.313c1.562,1.562,3.61,2.343,5.657,2.343c2.047,0,4.095-0.781,5.657-2.343l11.41-11.41l11.41,11.41   c1.562,1.562,3.61,2.343,5.657,2.343c2.047,0,4.095-0.781,5.657-2.343c3.124-3.124,3.124-8.19,0-11.313L139.313,290.133z"/>
</g>
<g>
	<rect x="248" y="59.733" style="fill:#56677E;" width="16" height="128"/>
	<path style="fill:#56677E;" d="M281.607,238.401c-2.586,0-5.122-1.251-6.663-3.564c-2.451-3.676-1.457-8.643,2.219-11.093   l25.6-17.067c3.173-2.117,7.397-1.697,10.095,0.999l17.067,17.067c3.124,3.124,3.124,8.19,0,11.313   c-3.125,3.124-8.19,3.124-11.314,0l-12.429-12.429l-20.144,13.428C284.674,237.966,283.133,238.401,281.607,238.401z"/>
	<path style="fill:#56677E;" d="M332.8,272.533c-2.047,0-4.095-0.781-5.658-2.343l-13.57-13.57l-20.91,6.97   c-4.194,1.396-8.722-0.868-10.119-5.06c-1.397-4.191,0.867-8.722,5.059-10.119l25.6-8.533c2.876-0.957,6.045-0.21,8.188,1.933   l17.067,17.067C343.386,263.805,339.796,272.533,332.8,272.533z"/>
	<path style="fill:#56677E;" d="M324.267,298.133c-2.047,0-4.095-0.781-5.658-2.343L305.62,282.8l-11.909,5.955   c-3.952,1.977-8.758,0.375-10.734-3.578c-1.977-3.952-0.374-8.757,3.578-10.733l17.067-8.533c3.081-1.54,6.8-0.937,9.235,1.499   l17.067,17.067C334.852,289.405,331.263,298.133,324.267,298.133z"/>
	<path style="fill:#56677E;" d="M230.393,238.401c-1.525,0-3.067-0.435-4.43-1.345l-20.143-13.428l-12.429,12.429   c-3.124,3.124-8.19,3.124-11.313,0c-3.124-3.124-3.124-8.19,0-11.313l17.067-17.067c2.697-2.697,6.923-3.115,10.094-0.999   l25.6,17.067c3.677,2.45,4.67,7.418,2.219,11.093C235.515,237.15,232.978,238.401,230.393,238.401z"/>
	<path style="fill:#56677E;" d="M179.2,272.533c-6.995,0-10.586-8.729-5.657-13.657l17.067-17.067   c2.142-2.144,5.312-2.891,8.187-1.933l25.6,8.533c4.192,1.397,6.457,5.929,5.06,10.119c-1.398,4.191-5.927,6.457-10.119,5.06   l-20.91-6.97l-13.571,13.57C183.295,271.753,181.247,272.533,179.2,272.533z"/>
	<path style="fill:#56677E;" d="M187.733,298.133c-6.995,0-10.586-8.729-5.657-13.657l17.067-17.067   c2.435-2.435,6.156-3.039,9.234-1.499l17.067,8.533c3.952,1.975,5.554,6.781,3.578,10.733c-1.975,3.952-6.781,5.554-10.733,3.578   L206.38,282.8l-12.99,12.99C191.828,297.353,189.78,298.133,187.733,298.133z"/>
</g>
<circle style="fill:#59AD57;" cx="256" cy="204.8" r="25.6"/>
<ellipse style="fill:#7EC97D;" cx="256" cy="264.533" rx="42.667" ry="51.2"/>
<path style="fill:#59AD57;" d="M264.533,298.667c-23.564,0-42.667-22.923-42.667-51.2c0-6.068,0.885-11.887,2.5-17.289  c-6.857,9.084-11.034,21.134-11.034,34.355c0,28.277,19.103,51.2,42.667,51.2c18.507,0,34.257-14.143,40.166-33.911  C288.359,292.166,277.079,298.667,264.533,298.667z"/>
<circle style="fill:#B8E3A8;" cx="264.533" cy="247.467" r="17.067"/>
<g>
</g>
<g>
</g>
<g>
</g>
<g>
</g>
<g>
</g>
<g>
</g>
<g>
</g>
<g>
</g>
<g>
</g>
<g>
</g>
<g>
</g>
<g>
</g>
<g>
</g>
<g>
</g>
<g>
</g>
</svg>
