<?xml version="1.0" encoding="iso-8859-1"?>
<!-- Generator: Adobe Illustrator 19.0.0, SVG Export Plug-In . SVG Version: 6.00 Build 0)  -->
<svg xmlns="http://www.w3.org/2000/svg" xmlns:xlink="http://www.w3.org/1999/xlink" version="1.1" id="Layer_1" x="0px" y="0px" viewBox="0 0 512 512" style="enable-background:new 0 0 512 512;" xml:space="preserve">
<path style="fill:#D9DDE2;" d="M503.172,476.69H8.828c-4.875,0-8.828-3.953-8.828-8.828V44.138c0-4.875,3.953-8.828,8.828-8.828  h494.345c4.875,0,8.828,3.953,8.828,8.828v423.724C512,472.737,508.047,476.69,503.172,476.69z"/>
<path style="fill:#C7CCD4;" d="M35.31,467.862V44.138c0-4.875,3.953-8.828,8.828-8.828H8.828C3.953,35.31,0,39.263,0,44.138v423.724  c0,4.875,3.953,8.828,8.828,8.828h35.31C39.263,476.69,35.31,472.737,35.31,467.862z"/>
<path style="fill:#69788D;" d="M503.172,35.31H8.828C3.953,35.31,0,39.263,0,44.138v97.103h512V44.138  C512,39.263,508.047,35.31,503.172,35.31z"/>
<path style="fill:#56677E;" d="M44.138,35.31H8.828C3.953,35.31,0,39.263,0,44.138v97.103h35.31V44.138  C35.31,39.263,39.263,35.31,44.138,35.31z"/>
<circle style="fill:#FFA393;" cx="450.207" cy="88.276" r="26.483"/>
<circle style="fill:#FFE285;" cx="379.586" cy="88.276" r="26.483"/>
<circle style="fill:#63CAED;" cx="308.966" cy="88.276" r="26.483"/>
<g>
	<path style="fill:#C7CCD4;" d="M150.069,105.379H44.138c-4.57,0-8.276-3.705-8.276-8.276s3.705-8.276,8.276-8.276h105.931   c4.57,0,8.276,3.705,8.276,8.276S154.639,105.379,150.069,105.379z"/>
	<path style="fill:#C7CCD4;" d="M220.69,105.379h-26.483c-4.57,0-8.276-3.705-8.276-8.276s3.705-8.276,8.276-8.276h26.483   c4.57,0,8.276,3.705,8.276,8.276S225.26,105.379,220.69,105.379z"/>
</g>
<g>
	<path style="fill:#8E9AA9;" d="M467.862,184.828h-88.276c-4.57,0-8.276-3.705-8.276-8.276s3.705-8.276,8.276-8.276h88.276   c4.57,0,8.276,3.705,8.276,8.276S472.433,184.828,467.862,184.828z"/>
	<path style="fill:#8E9AA9;" d="M467.862,220.138h-52.966c-4.57,0-8.276-3.705-8.276-8.276c0-4.57,3.705-8.276,8.276-8.276h52.966   c4.57,0,8.276,3.705,8.276,8.276C476.138,216.433,472.433,220.138,467.862,220.138z"/>
</g>
<g>
	<path style="fill:#435670;" d="M256,237.793c-4.57,0-8.276-3.705-8.276-8.276v-44.138c0-4.57,3.705-8.276,8.276-8.276   c4.57,0,8.276,3.705,8.276,8.276v44.138C264.276,234.088,260.57,237.793,256,237.793z"/>
	<path style="fill:#435670;" d="M326.623,281.933c-3.285,0-6.392-1.969-7.687-5.204c-1.698-4.244,0.366-9.06,4.61-10.758   l44.138-17.655c4.246-1.7,9.06,0.367,10.758,4.61c1.698,4.244-0.366,9.06-4.61,10.757l-44.138,17.655   C328.686,281.742,327.646,281.933,326.623,281.933z"/>
	<path style="fill:#435670;" d="M379.583,414.345c-1.934,0-3.876-0.674-5.447-2.047l-70.621-61.793   c-3.439-3.01-3.788-8.238-0.779-11.678c3.011-3.441,8.238-3.788,11.678-0.779l70.621,61.793c3.439,3.01,3.788,8.238,0.779,11.678   C384.179,413.388,381.886,414.345,379.583,414.345z"/>
	<path style="fill:#435670;" d="M176.544,423.174c-1.578,0-3.172-0.45-4.583-1.391c-3.804-2.535-4.831-7.673-2.295-11.476   l35.31-52.966c2.535-3.804,7.673-4.83,11.476-2.295c3.804,2.535,4.831,7.673,2.295,11.476l-35.31,52.966   C181.843,421.879,179.219,423.174,176.544,423.174z"/>
	<path style="fill:#435670;" d="M185.376,299.588c-1.088,0-2.194-0.215-3.256-0.671l-61.793-26.483   c-4.201-1.801-6.147-6.666-4.346-10.867c1.8-4.201,6.667-6.148,10.867-4.346l61.793,26.483c4.201,1.801,6.147,6.666,4.346,10.867   C191.641,297.708,188.586,299.588,185.376,299.588z"/>
</g>
<g>
	<circle style="fill:#db6b5e;" cx="256" cy="176.552" r="17.655"/>
	<circle style="fill:#db6b5e;" cx="370.759" cy="256" r="17.655"/>
	<circle style="fill:#db6b5e;" cx="379.586" cy="406.069" r="17.655"/>
	<circle style="fill:#db6b5e;" cx="176.552" cy="414.897" r="17.655"/>
	<circle style="fill:#db6b5e;" cx="123.586" cy="264.828" r="17.655"/>
</g>
<circle style="fill:#ff8c78;" cx="256" cy="300.138" r="79.448"/>
<path style="fill:#db6b5e;" d="M282.483,353.103c-43.879,0-79.448-35.571-79.448-79.448c0-15.153,4.245-29.311,11.606-41.359  c-22.841,13.955-38.089,39.116-38.089,67.842c0,43.878,35.57,79.448,79.448,79.448c28.726,0,53.887-15.247,67.842-38.089  C311.794,348.858,297.635,353.103,282.483,353.103z"/>
<g>
	<path style="fill:#ECEEF1;" d="M255.633,317.241c-4.57,0-8.276-3.705-8.276-8.276v-44.138c0-4.57,3.705-8.276,8.276-8.276   s8.276,3.705,8.276,8.276v44.138C263.908,313.536,260.203,317.241,255.633,317.241z"/>
	<path style="fill:#ECEEF1;" d="M255.633,345.195c-4.57,0-8.276-3.705-8.276-8.276v-1.471c0-4.57,3.705-8.276,8.276-8.276   s8.276,3.705,8.276,8.276v1.471C263.908,341.491,260.203,345.195,255.633,345.195z"/>
</g>
<g>
</g>
<g>
</g>
<g>
</g>
<g>
</g>
<g>
</g>
<g>
</g>
<g>
</g>
<g>
</g>
<g>
</g>
<g>
</g>
<g>
</g>
<g>
</g>
<g>
</g>
<g>
</g>
<g>
</g>
</svg>
