<?xml version="1.0" encoding="iso-8859-1"?>
<!-- Generator: Adobe Illustrator 19.0.0, SVG Export Plug-In . SVG Version: 6.00 Build 0)  -->
<svg xmlns="http://www.w3.org/2000/svg" xmlns:xlink="http://www.w3.org/1999/xlink" version="1.1" id="Layer_1" x="0px" y="0px" viewBox="0 0 512 512" style="enable-background:new 0 0 512 512;" xml:space="preserve">
<path style="fill:#ECEEF1;" d="M285.867,512h-256c-14.139,0-25.6-11.461-25.6-25.6V25.6c0-14.139,11.461-25.6,25.6-25.6h256  c14.139,0,25.6,11.461,25.6,25.6v460.8C311.467,500.539,300.005,512,285.867,512z"/>
<path style="fill:#D9DDE2;" d="M38.4,486.4V25.6C38.4,11.461,49.861,0,64,0H29.867c-14.139,0-25.6,11.461-25.6,25.6v460.8  c0,14.139,11.461,25.6,25.6,25.6H64C49.861,512,38.4,500.539,38.4,486.4z"/>
<path style="fill:#3CBDE8;" d="M4.267,486.4c0,14.139,11.461,25.6,25.6,25.6h256c14.139,0,25.6-11.461,25.6-25.6v-42.667H4.267  V486.4z"/>
<path style="fill:#2C9DD4;" d="M38.4,486.4v-42.667H4.267V486.4c0,14.139,11.461,25.6,25.6,25.6H64  C49.861,512,38.4,500.539,38.4,486.4z"/>
<path style="fill:#3CBDE8;" d="M285.867,0h-256c-14.139,0-25.6,11.461-25.6,25.6v76.8h307.2V25.6  C311.467,11.461,300.005,0,285.867,0z"/>
<path style="fill:#2C9DD4;" d="M64,0H29.867c-14.139,0-25.6,11.461-25.6,25.6v76.8H38.4V25.6C38.4,11.461,49.861,0,64,0z"/>
<circle style="fill:#7C899B;" cx="157.867" cy="51.2" r="25.6"/>
<circle style="fill:#69788D;" cx="157.867" cy="51.2" r="17.067"/>
<path style="fill:#56677E;" d="M174.933,485.867H140.8c-4.419,0-8-3.581-8-8c0-4.419,3.581-8,8-8h34.133c4.419,0,8,3.581,8,8  C182.933,482.286,179.353,485.867,174.933,485.867z"/>
<path style="fill:#A1ABB8;" d="M234.667,409.6h-153.6c-4.713,0-8.533-3.821-8.533-8.533v-102.4c0-4.713,3.821-8.533,8.533-8.533  h153.6c4.713,0,8.533,3.821,8.533,8.533v102.4C243.2,405.779,239.379,409.6,234.667,409.6z"/>
<path style="fill:#8E9AA9;" d="M243.2,321.164V307.2H72.533v13.964l80.752,51.388c2.796,1.779,6.367,1.779,9.163,0L243.2,321.164z"/>
<path style="fill:#A1ABB8;" d="M243.2,304.097v-5.43c0-4.713-3.821-8.533-8.533-8.533h-153.6c-4.713,0-8.533,3.821-8.533,8.533v5.43  l80.752,51.388c2.796,1.779,6.367,1.779,9.163,0L243.2,304.097z"/>
<path style="fill:#FFDB66;" d="M371.2,34.133c-75.405,0-136.533,51.577-136.533,115.2c0,23.959,8.672,46.209,23.508,64.642  l-40.313,59.23c-4.869,7.154,2.775,16.177,10.633,12.548l76.848-35.49c19.53,9.091,41.975,14.27,65.857,14.27  c75.405,0,136.533-51.578,136.533-115.2C507.733,85.71,446.605,34.133,371.2,34.133z"/>
<path style="fill:#F7C14D;" d="M405.333,247.467c-88.609,0-160.605-61.732-162.098-138.373c-5.536,12.528-8.569,26.084-8.569,40.24  c0,23.959,8.672,46.209,23.508,64.642l-40.313,59.23c-4.869,7.154,2.775,16.177,10.633,12.548l76.848-35.49  c19.53,9.091,41.975,14.27,65.857,14.27c31.037,0,59.649-8.743,82.581-23.463C438.482,245.225,422.209,247.467,405.333,247.467z"/>
<g>
	<path style="fill:#56677E;" d="M392.531,124.654c0.692,0,1.388-0.09,2.067-0.272c2.05-0.548,3.799-1.889,4.861-3.728l17.065-29.556   c2.207-3.824,0.9-8.713-2.922-10.924C400.743,72.734,386.081,68.8,371.2,68.8c-14.881,0-29.543,3.934-42.402,11.374   c-3.822,2.211-5.13,7.1-2.922,10.924l17.065,29.556c1.061,1.839,2.811,3.18,4.861,3.728c2.05,0.55,4.237,0.26,6.074-0.803   c5.253-3.04,11.245-4.645,17.325-4.645s12.071,1.606,17.325,4.645C389.754,124.289,391.136,124.654,392.531,124.654z"/>
	<path style="fill:#56677E;" d="M353.862,183.614c-5.257-3.028-9.643-7.412-12.685-12.681v-0.001   c-3.042-5.266-4.645-11.257-4.64-17.324c0.002-2.123-0.839-4.16-2.34-5.663c-1.5-1.502-3.536-2.346-5.66-2.346h-34.129   c-4.416,0-7.996,3.578-8,7.993c-0.015,14.855,3.911,29.52,11.353,42.407c7.441,12.886,18.177,23.618,31.05,31.035   c1.259,0.726,2.631,1.07,3.986,1.07c2.765,0,5.454-1.436,6.935-4.001l17.065-29.557c1.061-1.839,1.349-4.023,0.798-6.075   C357.045,186.421,355.702,184.673,353.862,183.614z"/>
	<path style="fill:#56677E;" d="M447.99,145.6h-34.129c-2.123,0-4.159,0.844-5.66,2.346c-1.501,1.502-2.342,3.539-2.34,5.663   c0.006,6.067-1.598,12.059-4.64,17.324v0.001c-3.042,5.267-7.428,9.652-12.685,12.681c-1.84,1.059-3.183,2.807-3.733,4.858   c-0.551,2.051-0.263,4.237,0.798,6.075l17.065,29.557c1.482,2.566,4.171,4.001,6.935,4.001c1.356,0,2.729-0.345,3.986-1.07   c12.873-7.417,23.61-18.148,31.05-31.035c7.441-12.887,11.366-27.552,11.353-42.407C455.986,149.178,452.406,145.6,447.99,145.6z"/>
	<circle style="fill:#56677E;" cx="371.2" cy="153.6" r="25.6"/>
</g>
<g>
	<path style="fill:#7C899B;" d="M132.267,144.533h-51.2c-4.419,0-8-3.581-8-8s3.581-8,8-8h51.2c4.419,0,8,3.581,8,8   S136.686,144.533,132.267,144.533z"/>
	<path style="fill:#7C899B;" d="M157.867,178.667h-76.8c-4.419,0-8-3.581-8-8s3.581-8,8-8h76.8c4.419,0,8,3.581,8,8   S162.286,178.667,157.867,178.667z"/>
	<path style="fill:#7C899B;" d="M200.533,178.667h-17.067c-4.419,0-8-3.581-8-8s3.581-8,8-8h17.067c4.419,0,8,3.581,8,8   S204.953,178.667,200.533,178.667z"/>
	<path style="fill:#7C899B;" d="M123.733,212.8H81.067c-4.419,0-8-3.581-8-8c0-4.419,3.581-8,8-8h42.667c4.419,0,8,3.581,8,8   C131.733,209.219,128.153,212.8,123.733,212.8z"/>
	<path style="fill:#7C899B;" d="M192,212.8h-42.667c-4.419,0-8-3.581-8-8c0-4.419,3.581-8,8-8H192c4.419,0,8,3.581,8,8   C200,209.219,196.419,212.8,192,212.8z"/>
</g>
<g>
</g>
<g>
</g>
<g>
</g>
<g>
</g>
<g>
</g>
<g>
</g>
<g>
</g>
<g>
</g>
<g>
</g>
<g>
</g>
<g>
</g>
<g>
</g>
<g>
</g>
<g>
</g>
<g>
</g>
</svg>
