<?xml version="1.0" encoding="iso-8859-1"?>
<!-- Generator: Adobe Illustrator 19.0.0, SVG Export Plug-In . SVG Version: 6.00 Build 0)  -->
<svg xmlns="http://www.w3.org/2000/svg" xmlns:xlink="http://www.w3.org/1999/xlink" version="1.1" id="Layer_1" x="0px" y="0px" viewBox="0 0 512 512" style="enable-background:new 0 0 512 512;" xml:space="preserve">
<path style="fill:#FF8C78;" d="M187.733,102.667H161.6v-94.4c0-4.418-3.582-8-8-8h-34.133c-4.418,0-8,3.582-8,8v94.4H85.333  c-9.117,0-16.533,7.417-16.533,16.533V132c0,9.117,7.417,16.533,16.533,16.533h26.133v166.933c0,4.418,3.582,8,8,8H153.6  c4.418,0,8-3.582,8-8V148.533h26.133c9.117,0,16.533-7.417,16.533-16.533v-12.8C204.267,110.083,196.85,102.667,187.733,102.667z"/>
<path style="fill:#DB6B5E;" d="M111.467,315.467c0,4.418,3.582,8,8,8H153.6c4.418,0,8-3.582,8-8V204.533h-50.133V315.467z"/>
<path style="fill:#7EC97D;" d="M503.467,511.733H8.533C3.821,511.733,0,507.913,0,503.2V230.133c0-4.713,3.821-8.533,8.533-8.533  h494.933c4.713,0,8.533,3.821,8.533,8.533V503.2C512,507.913,508.179,511.733,503.467,511.733z"/>
<path style="fill:#FFDB66;" d="M477.867,434.933V298.4c-23.564,0-42.667-19.103-42.667-42.667H76.8  c0,23.564-19.103,42.667-42.667,42.667v136.533c23.564,0,42.667,19.103,42.667,42.667h358.4  C435.2,454.036,454.303,434.933,477.867,434.933z"/>
<path style="fill:#F09B24;" d="M264,360.454v-44.263c10.508,3.388,18.133,13.255,18.133,24.876c0,4.418,3.582,8,8,8  c4.418,0,8-3.582,8-8c0-20.497-14.715-37.613-34.133-41.362v-9.838c0-4.418-3.582-8-8-8c-4.418,0-8,3.582-8,8v9.838  c-19.419,3.749-34.133,20.865-34.133,41.362c0,20.738,17.633,27.435,34.133,31.812v44.263  c-10.508-3.388-18.133-13.255-18.133-24.876c0-4.418-3.582-8-8-8c-4.418,0-8,3.582-8,8c0,20.497,14.715,37.613,34.133,41.362v9.838  c0,4.418,3.582,8,8,8c4.418,0,8-3.582,8-8v-9.838c19.419-3.749,34.133-20.865,34.133-41.362  C298.133,371.529,280.5,364.832,264,360.454z M229.867,341.067c0-11.62,7.626-21.489,18.133-24.876v40.052  C235.725,352.611,229.867,348.933,229.867,341.067z M264,417.142V377.09c12.275,3.632,18.133,7.31,18.133,15.177  C282.133,403.887,274.508,413.756,264,417.142z"/>
<g>
	<path style="fill:#FFE9C4;" d="M418.133,400.267h-68.267c-4.418,0-8-3.582-8-8c0-4.418,3.582-8,8-8h68.267c4.418,0,8,3.582,8,8   C426.133,396.685,422.551,400.267,418.133,400.267z"/>
	<path style="fill:#FFE9C4;" d="M418.133,366.133h-68.267c-4.418,0-8-3.582-8-8c0-4.418,3.582-8,8-8h68.267c4.418,0,8,3.582,8,8   C426.133,362.551,422.551,366.133,418.133,366.133z"/>
	<path style="fill:#FFE9C4;" d="M162.133,400.267H93.867c-4.418,0-8-3.582-8-8c0-4.418,3.582-8,8-8h68.267c4.418,0,8,3.582,8,8   C170.133,396.685,166.551,400.267,162.133,400.267z"/>
	<path style="fill:#FFE9C4;" d="M162.133,366.133H93.867c-4.418,0-8-3.582-8-8c0-4.418,3.582-8,8-8h68.267c4.418,0,8,3.582,8,8   C170.133,362.551,166.551,366.133,162.133,366.133z"/>
</g>
<path style="fill:#59AD57;" d="M494.933,494.667H435.2H17.067v-230.4v-25.6V221.6H8.533C3.821,221.6,0,225.421,0,230.133V503.2  c0,4.713,3.821,8.533,8.533,8.533h486.4h8.533c4.713,0,8.533-3.821,8.533-8.533v-8.533H494.933z"/>
<path style="fill:#DB6B5E;" d="M352.644,134.396l18.278-5.61c3.25-0.998,5.516-3.941,5.647-7.339c0.131-3.397-1.9-6.508-5.065-7.754  L258.93,69.385c-6.371-2.507-12.882,4.002-10.374,10.374l44.308,112.575c1.245,3.164,4.348,5.194,7.754,5.065  c3.398-0.131,6.341-2.397,7.339-5.647l8.588-27.981c22.653,18.271,35.989,45.903,35.989,75.193c0,17.579-4.764,34.775-13.776,49.733  c-5.087,8.441-4.125,19.538,2.38,26.95c6.368,7.255,16.921,9.764,25.86,6.129c4.567-1.857,8.499-5.181,11.045-9.408  c13.317-22.101,20.356-47.485,20.356-73.405C398.4,199.261,381.527,161.181,352.644,134.396z"/>
<g>
</g>
<g>
</g>
<g>
</g>
<g>
</g>
<g>
</g>
<g>
</g>
<g>
</g>
<g>
</g>
<g>
</g>
<g>
</g>
<g>
</g>
<g>
</g>
<g>
</g>
<g>
</g>
<g>
</g>
</svg>
