<?xml version="1.0" encoding="iso-8859-1"?>
<!-- Generator: Adobe Illustrator 19.0.0, SVG Export Plug-In . SVG Version: 6.00 Build 0)  -->
<svg xmlns="http://www.w3.org/2000/svg" xmlns:xlink="http://www.w3.org/1999/xlink" version="1.1" id="Layer_1" x="0px" y="0px" viewBox="0 0 512 512" style="enable-background:new 0 0 512 512;" xml:space="preserve">
<path style="fill:#FFDB66;" d="M469.333,0h-128c-9.426,0-17.067,7.641-17.067,17.067v102.4c0,9.426,7.641,17.067,17.067,17.067  h34.133v39.132c0,7.602,9.191,11.41,14.568,6.034l45.166-45.166h34.133c9.426,0,17.067-7.641,17.067-17.067v-102.4  C486.4,7.641,478.759,0,469.333,0z"/>
<path style="fill:#F7C14D;" d="M349.867,119.467v-102.4C349.867,7.641,357.507,0,366.933,0h-25.6  c-9.426,0-17.067,7.641-17.067,17.067v102.4c0,9.426,7.641,17.067,17.067,17.067h25.6  C357.507,136.533,349.867,128.893,349.867,119.467z"/>
<path style="fill:#F09B24;" d="M426.667,60.267h-26.133v-9.6h26.133c4.418,0,8-3.582,8-8s-3.582-8-8-8H417.6V25.6  c0-4.418-3.582-8-8-8c-4.418,0-8,3.582-8,8v9.067h-9.067c-4.418,0-8,3.582-8,8v25.6c0,4.418,3.582,8,8,8h26.133v9.6h-26.133  c-4.418,0-8,3.582-8,8c0,4.418,3.582,8,8,8h9.067v9.067c0,4.418,3.582,8,8,8c4.418,0,8-3.582,8-8v-9.067h9.067c4.418,0,8-3.582,8-8  v-25.6C434.667,63.849,431.085,60.267,426.667,60.267z"/>
<path style="fill:#ECEEF1;" d="M324.267,512H34.133V298.667c0-18.851,15.282-34.133,34.133-34.133h221.867  c18.851,0,34.133,15.282,34.133,34.133V512z"/>
<g>
	<rect x="34.133" y="384" style="fill:#69788D;" width="290.133" height="51.2"/>
	<rect x="34.133" y="460.8" style="fill:#69788D;" width="290.133" height="51.2"/>
	<rect x="34.133" y="307.2" style="fill:#69788D;" width="290.133" height="51.2"/>
</g>
<g>
	<circle style="fill:#FFE9C4;" cx="179.2" cy="145.067" r="119.467"/>
	<circle style="fill:#FFE9C4;" cx="59.733" cy="153.6" r="34.133"/>
	<circle style="fill:#FFE9C4;" cx="298.667" cy="153.6" r="34.133"/>
</g>
<path style="fill:#7C899B;" d="M295.908,119.467H62.492c-1.801,8.249-2.758,16.812-2.758,25.6c0,15.034,2.785,29.415,7.854,42.667  h223.226c5.069-13.251,7.854-27.633,7.854-42.667C298.667,136.278,297.709,127.715,295.908,119.467z"/>
<g>
	<circle style="fill:#435670;" cx="136.533" cy="153.6" r="8.533"/>
	<circle style="fill:#435670;" cx="213.333" cy="153.6" r="8.533"/>
</g>
<path style="fill:#FF8C78;" d="M196.267,196.267h-34.133c-18.773,0-34.133,15.36-34.133,34.133v22.629  c15.519,7.373,32.876,11.504,51.2,11.504s35.681-4.131,51.2-11.504V230.4C230.4,211.627,215.04,196.267,196.267,196.267z"/>
<path style="fill:#DB6B5E;" d="M187.733,238.4h-17.067c-4.418,0-8-3.582-8-8c0-4.418,3.582-8,8-8h17.067c4.418,0,8,3.582,8,8  C195.733,234.818,192.151,238.4,187.733,238.4z"/>
<path style="fill:#FF8C78;" d="M59.733,17.067c25.6,17.067,81.764-8.533,119.467-8.533s68.267,19.103,68.267,42.667  S216.902,93.867,179.2,93.867C93.867,93.867,59.733,34.133,59.733,17.067z"/>
<path style="fill:#DB6B5E;" d="M192,81.067c-64.63,0-99.884-34.261-113.188-58.303c-7.355-0.509-13.854-2.213-19.078-5.697  c0,17.067,34.133,76.8,119.467,76.8c28.734,0,53.303-11.101,63.376-26.811C230.086,75.662,212.053,81.067,192,81.067z"/>
<path style="fill:#3CBDE8;" d="M349.867,477.867h-102.4c-4.713,0-8.533-3.821-8.533-8.533v-153.6c0-4.713,3.821-8.533,8.533-8.533  h102.4c4.713,0,8.533,3.821,8.533,8.533v153.6C358.4,474.046,354.579,477.867,349.867,477.867z"/>
<circle style="fill:#2A7DB5;" cx="298.667" cy="341.333" r="8.533"/>
<path style="fill:#FFE9C4;" d="M366.933,512h-68.267c-9.426,0-17.067-7.641-17.067-17.067v-76.8c0-9.426,7.641-17.067,17.067-17.067  h68.267c9.426,0,17.067,7.641,17.067,17.067v76.8C384,504.359,376.359,512,366.933,512z"/>
<g>
	<path style="fill:#F7C14D;" d="M324.267,435.2c0-4.713-3.821-8.533-8.533-8.533H281.6v17.067h34.133   C320.446,443.733,324.267,439.913,324.267,435.2z"/>
	<path style="fill:#F7C14D;" d="M324.267,458.667c0-4.713-3.821-8.533-8.533-8.533H281.6V467.2h34.133   C320.446,467.2,324.267,463.379,324.267,458.667z"/>
	<path style="fill:#F7C14D;" d="M324.267,482.133c0-4.713-3.821-8.533-8.533-8.533H281.6v17.067h34.133   C320.446,490.667,324.267,486.846,324.267,482.133z"/>
</g>
<g>
	<path style="fill:#DB6B5E;" d="M375.467,273.067c-9.41,0-17.067,7.657-17.067,17.067s7.657,17.067,17.067,17.067   s17.067-7.657,17.067-17.067S384.877,273.067,375.467,273.067z"/>
	<path style="fill:#DB6B5E;" d="M418.133,298.133c-4.418,0-8-3.582-8-8c0-19.115-15.552-34.667-34.667-34.667c-4.418,0-8-3.582-8-8   c0-4.418,3.582-8,8-8c27.937,0,50.667,22.73,50.667,50.667C426.133,294.551,422.551,298.133,418.133,298.133z"/>
	<path style="fill:#DB6B5E;" d="M452.267,298.133c-4.418,0-8-3.582-8-8c0-37.936-30.864-68.8-68.8-68.8c-4.418,0-8-3.582-8-8   s3.582-8,8-8c46.758,0,84.8,38.042,84.8,84.8C460.267,294.551,456.685,298.133,452.267,298.133z"/>
</g>
<g>
</g>
<g>
</g>
<g>
</g>
<g>
</g>
<g>
</g>
<g>
</g>
<g>
</g>
<g>
</g>
<g>
</g>
<g>
</g>
<g>
</g>
<g>
</g>
<g>
</g>
<g>
</g>
<g>
</g>
</svg>
