<?xml version="1.0" encoding="iso-8859-1"?>
<!-- Generator: Adobe Illustrator 19.0.0, SVG Export Plug-In . SVG Version: 6.00 Build 0)  -->
<svg xmlns="http://www.w3.org/2000/svg" xmlns:xlink="http://www.w3.org/1999/xlink" version="1.1" id="Layer_1" x="0px" y="0px" viewBox="0 0 512 512" style="enable-background:new 0 0 512 512;" xml:space="preserve">
<path style="fill:#ECEEF1;" d="M469.333,388.267H42.667V89.6c0-14.139,11.461-25.6,25.6-25.6h375.467  c14.139,0,25.6,11.461,25.6,25.6V388.267z"/>
<path style="fill:#D9DDE2;" d="M93.867,64h-25.6c-14.139,0-25.6,11.461-25.6,25.6v298.667h25.6V89.6  C68.267,75.461,79.728,64,93.867,64z"/>
<path style="fill:#3CBDE8;" d="M443.733,64H68.267c-14.139,0-25.6,11.461-25.6,25.6v42.667h426.667V89.6  C469.333,75.461,457.872,64,443.733,64z"/>
<path style="fill:#2C9DD4;" d="M93.867,64h-25.6c-14.139,0-25.6,11.461-25.6,25.6v42.667h25.6V89.6  C68.267,75.461,79.728,64,93.867,64z"/>
<path style="fill:#3CBDE8;" d="M486.4,448H25.6C11.461,448,0,436.539,0,422.4v-42.667c0-4.713,3.821-8.533,8.533-8.533h494.933  c4.713,0,8.533,3.821,8.533,8.533V422.4C512,436.539,500.539,448,486.4,448z"/>
<path style="fill:#2C9DD4;" d="M25.6,422.4v-42.667c0-4.713,3.821-8.533,8.533-8.533h-25.6C3.821,371.2,0,375.021,0,379.733V422.4  C0,436.539,11.461,448,25.6,448h25.6C37.061,448,25.6,436.539,25.6,422.4z"/>
<path style="fill:#3F8ABC;" d="M281.6,413.867h-51.2c-9.426,0-17.067-7.641-17.067-17.067v-25.6h85.333v25.6  C298.667,406.226,291.026,413.867,281.6,413.867z"/>
<path style="fill:#42A7D8;" d="M230.4,405.333c-4.705,0-8.533-3.828-8.533-8.533v-17.067h68.267V396.8  c0,4.705-3.828,8.533-8.533,8.533H230.4z"/>
<g>
	<path style="fill:#56677E;" d="M264.533,106.667h-17.067c-4.713,0-8.533-3.821-8.533-8.533s3.821-8.533,8.533-8.533h17.067   c4.713,0,8.533,3.821,8.533,8.533S269.246,106.667,264.533,106.667z"/>
	<path style="fill:#56677E;" d="M469.333,166.933h-34.667V166.4c0-9.117-7.417-16.533-16.533-16.533H384   c-9.117,0-16.533,7.417-16.533,16.533v0.533h-18.133V166.4c0-9.117-7.417-16.533-16.533-16.533h-34.133   c-9.117,0-16.533,7.417-16.533,16.533v17.067c0,4.549,1.847,8.674,4.83,11.666l-9.645,14.467h-42.638l-9.645-14.467   c2.982-2.992,4.83-7.117,4.83-11.666V166.4c0-9.117-7.417-16.533-16.533-16.533h-34.133c-9.117,0-16.533,7.417-16.533,16.533v0.533   h-18.133V166.4c0-9.117-7.417-16.533-16.533-16.533H93.867c-9.117,0-16.533,7.417-16.533,16.533v0.533H42.667c-4.418,0-8,3.581-8,8   c0,4.419,3.582,8,8,8h34.667v0.533c0,9.117,7.417,16.533,16.533,16.533H128c9.117,0,16.533-7.417,16.533-16.533v-0.533h18.133   v0.533c0,9.117,7.417,16.533,16.533,16.533h29.852l13.348,20.022v57.311c0,4.419,3.582,8,8,8c4.418,0,8-3.581,8-8V225.6h35.2   v51.733c0,4.419,3.582,8,8,8c4.418,0,8-3.581,8-8v-57.311L302.948,200H332.8c9.117,0,16.533-7.417,16.533-16.533v-0.533h18.133   v0.533c0,9.117,7.417,16.533,16.533,16.533h34.133c9.117,0,16.533-7.417,16.533-16.533v-0.533h34.667c4.418,0,8-3.581,8-8   C477.333,170.514,473.751,166.933,469.333,166.933z M128.533,166.933H128c-4.418,0-8,3.581-8,8c0,4.419,3.582,8,8,8h0.533v0.533   c0,0.293-0.239,0.533-0.533,0.533H93.867c-0.294,0-0.533-0.24-0.533-0.533v-0.533h0.533c4.418,0,8-3.581,8-8c0-4.419-3.582-8-8-8   h-0.533V166.4c0-0.293,0.239-0.533,0.533-0.533H128c0.294,0,0.533,0.24,0.533,0.533V166.933z M213.867,183.467   c0,0.293-0.239,0.533-0.533,0.533H179.2c-0.294,0-0.533-0.24-0.533-0.533v-0.533h0.533c4.418,0,8-3.581,8-8c0-4.419-3.582-8-8-8   h-0.533V166.4c0-0.293,0.239-0.533,0.533-0.533h34.133c0.294,0,0.533,0.24,0.533,0.533V183.467z M333.333,166.933H332.8   c-4.418,0-8,3.581-8,8c0,4.419,3.582,8,8,8h0.533v0.533c0,0.293-0.239,0.533-0.533,0.533h-34.133c-0.294,0-0.533-0.24-0.533-0.533   V166.4c0-0.293,0.239-0.533,0.533-0.533H332.8c0.294,0,0.533,0.24,0.533,0.533V166.933z M418.667,166.933h-0.533   c-4.418,0-8,3.581-8,8c0,4.419,3.582,8,8,8h0.533v0.533c0,0.293-0.239,0.533-0.533,0.533H384c-0.294,0-0.533-0.24-0.533-0.533   v-0.533H384c4.418,0,8-3.581,8-8c0-4.419-3.582-8-8-8h-0.533V166.4c0-0.293,0.239-0.533,0.533-0.533h34.133   c0.294,0,0.533,0.24,0.533,0.533V166.933z"/>
</g>
<path style="fill:#FF8C78;" d="M290.133,354.133h-68.267c-9.426,0-17.067-7.641-17.067-17.067v-59.733  c0-9.426,7.641-17.067,17.067-17.067h68.267c9.426,0,17.067,7.641,17.067,17.067v59.733  C307.2,346.493,299.559,354.133,290.133,354.133z"/>
<path style="fill:#DB6B5E;" d="M230.4,337.067v-59.733c0-9.425,7.641-17.067,17.067-17.067h-25.6  c-9.426,0-17.067,7.642-17.067,17.067v59.733c0,9.425,7.641,17.067,17.067,17.067h25.6C238.041,354.133,230.4,346.492,230.4,337.067  z"/>
<path style="fill:#56677E;" d="M264.533,286.933h-17.067c-4.418,0-8,3.581-8,8s3.582,8,8,8H248v17.6c0,4.419,3.582,8,8,8  c4.418,0,8-3.581,8-8v-17.6h0.533c4.418,0,8-3.581,8-8S268.951,286.933,264.533,286.933z"/>
<path style="fill:#69788D;" d="M256,320.533v-17.6h-0.533c-4.418,0-8-3.581-8-8s3.582-8,8-8h-8c-4.418,0-8,3.581-8,8s3.582,8,8,8  H248v17.6c0,4.419,3.582,8,8,8c1.459,0,2.822-0.397,4-1.078C257.611,326.07,256,323.493,256,320.533z"/>
<g>
</g>
<g>
</g>
<g>
</g>
<g>
</g>
<g>
</g>
<g>
</g>
<g>
</g>
<g>
</g>
<g>
</g>
<g>
</g>
<g>
</g>
<g>
</g>
<g>
</g>
<g>
</g>
<g>
</g>
</svg>
