<?xml version="1.0" encoding="iso-8859-1"?>
<!-- Generator: Adobe Illustrator 19.0.0, SVG Export Plug-In . SVG Version: 6.00 Build 0)  -->
<svg xmlns="http://www.w3.org/2000/svg" xmlns:xlink="http://www.w3.org/1999/xlink" version="1.1" id="Layer_1" x="0px" y="0px" viewBox="0 0 512 512" style="enable-background:new 0 0 512 512;" xml:space="preserve">
<path style="fill:#8E9AA9;" d="M486.4,460.8H25.6C11.461,460.8,0,449.339,0,435.2V298.667c0-14.139,11.461-25.6,25.6-25.6h460.8  c14.139,0,25.6,11.461,25.6,25.6V435.2C512,449.339,500.539,460.8,486.4,460.8z"/>
<path style="fill:#7C899B;" d="M503.467,443.733H34.133c-9.425,0-17.067-7.641-17.067-17.067V281.6c0-2.586,0.387-5.081,1.1-7.434  C7.654,277.353,0,287.114,0,298.667V435.2c0,14.139,11.461,25.6,25.6,25.6h460.8c11.553,0,21.314-7.654,24.5-18.166  C508.547,443.346,506.052,443.733,503.467,443.733z"/>
<path style="fill:#2C9DD4;" d="M469.333,435.2H42.667c-9.426,0-17.067-7.641-17.067-17.067v-102.4  c0-9.426,7.641-17.067,17.067-17.067h426.667c9.426,0,17.067,7.641,17.067,17.067v102.4C486.4,427.56,478.759,435.2,469.333,435.2z"/>
<rect x="51.2" y="324.267" style="fill:#3CBDE8;" width="409.6" height="85.333"/>
<g>
	<path style="fill:#C5F1FA;" d="M115.2,358.933h-10.234l5.023-15.07c1.397-4.192-0.867-8.722-5.059-10.119   c-4.194-1.397-8.723,0.867-10.119,5.06L89.6,354.435l-5.211-15.631c-1.398-4.192-5.927-6.458-10.119-5.06   c-4.192,1.397-6.457,5.927-5.059,10.119l5.023,15.07H64c-4.419,0-8,3.582-8,8s3.581,8,8,8h10.234l-5.023,15.07   c-1.397,4.192,0.867,8.722,5.059,10.119c0.839,0.279,1.693,0.413,2.531,0.413c3.349,0,6.47-2.121,7.588-5.472l5.211-15.632   l5.211,15.631c1.118,3.353,4.239,5.472,7.588,5.472c0.838,0,1.692-0.133,2.531-0.413c4.192-1.397,6.457-5.927,5.059-10.119   l-5.023-15.069H115.2c4.419,0,8-3.582,8-8S119.619,358.933,115.2,358.933z"/>
	<path style="fill:#C5F1FA;" d="M226.133,358.933H215.9l5.023-15.07c1.397-4.192-0.867-8.722-5.059-10.119   c-4.195-1.397-8.723,0.867-10.119,5.06l-5.211,15.631l-5.211-15.631c-1.398-4.192-5.927-6.458-10.119-5.06   c-4.192,1.397-6.457,5.927-5.059,10.119l5.023,15.07h-10.234c-4.419,0-8,3.582-8,8s3.581,8,8,8h10.234l-5.023,15.07   c-1.397,4.192,0.867,8.722,5.059,10.119c0.839,0.279,1.693,0.413,2.531,0.413c3.349,0,6.47-2.121,7.588-5.472l5.211-15.632   l5.211,15.631c1.118,3.353,4.239,5.472,7.588,5.472c0.838,0,1.692-0.133,2.531-0.413c4.192-1.397,6.457-5.927,5.059-10.119   l-5.023-15.07h10.234c4.419,0,8-3.582,8-8S230.553,358.933,226.133,358.933z"/>
	<path style="fill:#C5F1FA;" d="M337.067,358.933h-10.234l5.023-15.07c1.397-4.192-0.867-8.722-5.059-10.119   c-4.194-1.397-8.722,0.867-10.119,5.06l-5.211,15.631l-5.211-15.631c-1.398-4.192-5.926-6.458-10.119-5.06   c-4.192,1.397-6.457,5.927-5.059,10.119l5.023,15.07h-10.234c-4.419,0-8,3.582-8,8s3.581,8,8,8H296.1l-5.023,15.07   c-1.397,4.192,0.867,8.722,5.059,10.119c0.839,0.279,1.693,0.413,2.531,0.413c3.349,0,6.47-2.121,7.588-5.472l5.211-15.632   l5.211,15.631c1.118,3.353,4.239,5.472,7.588,5.472c0.838,0,1.692-0.133,2.531-0.413c4.192-1.397,6.457-5.927,5.059-10.119   l-5.023-15.07h10.234c4.419,0,8-3.582,8-8S341.486,358.933,337.067,358.933z"/>
	<path style="fill:#C5F1FA;" d="M448,358.933h-10.234l5.023-15.07c1.397-4.192-0.867-8.722-5.059-10.119   c-4.195-1.397-8.723,0.867-10.119,5.06l-5.211,15.631l-5.211-15.631c-1.398-4.192-5.926-6.458-10.119-5.06   c-4.192,1.397-6.457,5.927-5.059,10.119l5.023,15.07H396.8c-4.419,0-8,3.582-8,8s3.581,8,8,8h10.234l-5.023,15.07   c-1.397,4.192,0.867,8.722,5.059,10.119c0.839,0.279,1.693,0.413,2.531,0.413c3.349,0,6.47-2.121,7.588-5.472l5.211-15.632   l5.211,15.631c1.118,3.353,4.239,5.472,7.588,5.472c0.838,0,1.692-0.133,2.531-0.413c4.192-1.397,6.457-5.927,5.059-10.119   l-5.023-15.07H448c4.419,0,8-3.582,8-8S452.419,358.933,448,358.933z"/>
</g>
<path style="fill:#FFDB66;" d="M452.267,162.133c0-61.267-72.59-110.933-162.133-110.933S128,100.866,128,162.133  c0,49.024,46.481,90.617,110.933,105.282v63.898c0,7.291,8.551,11.223,14.086,6.479l80.126-68.679  C401.811,256.217,452.267,213.21,452.267,162.133z"/>
<path style="fill:#F7C14D;" d="M179.2,152.711c0-40.322,27.42-76.01,69.504-97.85C179.231,67.389,128,110.665,128,162.133  c0,49.024,46.481,90.617,110.933,105.282v63.898c0,7.291,8.551,11.223,14.086,6.479l76.191-65.307  C245.005,266.53,179.2,215.181,179.2,152.711z"/>
<g>
	<path style="fill:#F09B24;" d="M247.467,204.267c-18.527,0-33.6-18.901-33.6-42.133S228.94,120,247.467,120   s33.6,18.901,33.6,42.133S265.994,204.267,247.467,204.267z M247.467,136c-9.54,0-17.6,11.968-17.6,26.133   c0,14.165,8.06,26.133,17.6,26.133c9.54,0,17.6-11.968,17.6-26.133C265.067,147.968,257.007,136,247.467,136z"/>
	<path style="fill:#F09B24;" d="M375.467,204.267c-18.527,0-33.6-18.901-33.6-42.133S356.94,120,375.467,120   c18.527,0,33.6,18.901,33.6,42.133S393.994,204.267,375.467,204.267z M375.467,136c-9.54,0-17.6,11.968-17.6,26.133   c0,14.165,8.06,26.133,17.6,26.133c9.54,0,17.6-11.968,17.6-26.133C393.067,147.968,385.007,136,375.467,136z"/>
	<path style="fill:#F09B24;" d="M298.667,204.267c-4.419,0-8-3.582-8-8V128c0-4.418,3.581-8,8-8c4.419,0,8,3.582,8,8v68.267   C306.667,200.685,303.086,204.267,298.667,204.267z"/>
	<path style="fill:#F09B24;" d="M196.267,204.267c-4.419,0-8-3.582-8-8V128c0-4.418,3.581-8,8-8s8,3.582,8,8v68.267   C204.267,200.685,200.686,204.267,196.267,204.267z"/>
	<path style="fill:#F09B24;" d="M324.267,204.267c-4.419,0-8-3.582-8-8V128c0-4.418,3.581-8,8-8c4.419,0,8,3.582,8,8v68.267   C332.267,200.685,328.686,204.267,324.267,204.267z"/>
</g>
<g>
</g>
<g>
</g>
<g>
</g>
<g>
</g>
<g>
</g>
<g>
</g>
<g>
</g>
<g>
</g>
<g>
</g>
<g>
</g>
<g>
</g>
<g>
</g>
<g>
</g>
<g>
</g>
<g>
</g>
</svg>
