<?xml version="1.0" encoding="iso-8859-1"?>
<!-- Generator: Adobe Illustrator 19.0.0, SVG Export Plug-In . SVG Version: 6.00 Build 0)  -->
<svg xmlns="http://www.w3.org/2000/svg" xmlns:xlink="http://www.w3.org/1999/xlink" version="1.1" id="Layer_1" x="0px" y="0px" viewBox="0 0 512 512" style="enable-background:new 0 0 512 512;" xml:space="preserve">
<path style="fill:#8BCE8A;" d="M443.733,349.867H230.4v-307.2h213.333c4.713,0,8.533,3.821,8.533,8.533v290.133  C452.267,346.046,448.446,349.867,443.733,349.867z"/>
<path style="fill:#69B668;" d="M213.333,324.267v-256H358.4c4.713,0,8.533,3.821,8.533,8.533v8.533  c0,23.564,19.103,42.667,42.667,42.667h8.533c4.713,0,8.533,3.821,8.533,8.533V256c0,4.713-3.821,8.533-8.533,8.533H409.6  c-23.564,0-42.667,19.103-42.667,42.667v8.533c0,4.713-3.821,8.533-8.533,8.533H213.333z"/>
<path style="fill:#FFDF75;" d="M409.6,247.467v-102.4c-32.99,0-59.733-26.743-59.733-59.733H230.4V307.2h119.467  C349.867,274.21,376.61,247.467,409.6,247.467z"/>
<path style="fill:#F09B24;" d="M300.607,189.039c-19.084-4.771-28.074-8.086-28.074-17.839c0-11.62,7.626-21.489,18.133-24.876  v7.809c0,4.418,3.581,8,8,8c4.419,0,8-3.582,8-8v-7.809c10.508,3.388,18.133,13.255,18.133,24.876c0,4.418,3.581,8,8,8s8-3.582,8-8  c0-20.497-14.715-37.613-34.133-41.362v-10.371c0-4.418-3.581-8-8-8c-4.419,0-8,3.582-8,8v10.371  c-19.419,3.749-34.133,20.865-34.133,41.362c0,23.313,22.287,28.884,40.193,33.361c19.084,4.771,28.074,8.086,28.074,17.839  c0,11.62-7.626,21.489-18.133,24.876v-8.342c0-4.418-3.581-8-8-8c-4.419,0-8,3.582-8,8v8.342  c-10.508-3.388-18.133-13.255-18.133-24.876c0-4.418-3.581-8-8-8c-4.419,0-8,3.582-8,8c0,20.497,14.715,37.613,34.133,41.362v9.305  c0,4.418,3.581,8,8,8c4.419,0,8-3.582,8-8v-9.305c19.419-3.749,34.133-20.865,34.133-41.362  C340.8,199.087,318.513,193.516,300.607,189.039z"/>
<path style="fill:#8BCE8A;" d="M503.467,460.8H290.133V153.6h213.333c4.713,0,8.533,3.821,8.533,8.533v290.133  C512,456.979,508.179,460.8,503.467,460.8z"/>
<path style="fill:#69B668;" d="M273.067,435.2v-256h145.067c4.713,0,8.533,3.821,8.533,8.533v8.533  c0,23.564,19.103,42.667,42.667,42.667h8.533c4.713,0,8.533,3.821,8.533,8.533v119.467c0,4.713-3.821,8.533-8.533,8.533h-8.533  c-23.564,0-42.667,19.103-42.667,42.667v8.533c0,4.713-3.821,8.533-8.533,8.533H273.067z"/>
<path style="fill:#FFDF75;" d="M469.333,358.4V256c-32.99,0-59.733-26.743-59.733-59.733H290.133v221.867H409.6  C409.6,385.143,436.343,358.4,469.333,358.4z"/>
<path style="fill:#F09B24;" d="M366.4,301.521v-44.263c10.508,3.388,18.133,13.255,18.133,24.876c0,4.418,3.581,8,8,8  c4.419,0,8-3.582,8-8c0-20.497-14.715-37.613-34.133-41.362V230.4c0-4.418-3.581-8-8-8c-4.419,0-8,3.582-8,8v10.371  c-19.419,3.749-34.133,20.865-34.133,41.362c0,20.738,17.634,27.435,34.133,31.812v44.263  c-10.508-3.388-18.133-13.255-18.133-24.876c0-4.418-3.581-8-8-8c-4.419,0-8,3.582-8,8c0,20.497,14.715,37.613,34.133,41.362V384  c0,4.418,3.581,8,8,8c4.419,0,8-3.582,8-8v-9.305c19.419-3.749,34.133-20.865,34.133-41.362  C400.533,312.595,382.899,305.899,366.4,301.521z M332.267,282.133c0-11.62,7.626-21.489,18.133-24.876v40.052  C338.125,293.678,332.267,290,332.267,282.133z M366.4,358.209v-40.052c12.275,3.632,18.133,7.31,18.133,15.177  C384.533,344.954,376.908,354.822,366.4,358.209z"/>
<path style="fill:#ECEEF1;" d="M281.6,512h-256C11.461,512,0,500.539,0,486.4V25.6C0,11.461,11.461,0,25.6,0h256  c14.139,0,25.6,11.461,25.6,25.6v460.8C307.2,500.539,295.739,512,281.6,512z"/>
<g>
	<rect x="145.6" y="93.867" style="fill:#56677E;" width="16" height="162.133"/>
	<path style="fill:#56677E;" d="M179.207,306.668c-2.586,0-5.122-1.251-6.663-3.564c-2.451-3.676-1.458-8.643,2.219-11.093   l25.6-17.067c3.173-2.116,7.397-1.697,10.094,0.999l17.067,17.067c3.124,3.124,3.124,8.19,0,11.313   c-3.124,3.124-8.19,3.124-11.313,0l-12.429-12.429l-20.144,13.428C182.274,306.233,180.733,306.668,179.207,306.668z"/>
	<path style="fill:#56677E;" d="M230.4,340.8c-2.047,0-4.095-0.781-5.657-2.343l-13.571-13.57l-20.91,6.97   c-4.192,1.397-8.722-0.868-10.119-5.06c-1.397-4.191,0.868-8.722,5.06-10.119l25.6-8.533c2.874-0.957,6.044-0.21,8.187,1.933   l17.067,17.067C240.986,332.07,237.396,340.8,230.4,340.8z"/>
	<path style="fill:#56677E;" d="M221.867,366.4c-2.047,0-4.095-0.781-5.657-2.343l-12.99-12.99l-11.909,5.955   c-3.953,1.978-8.757,0.374-10.733-3.578c-1.977-3.952-0.374-8.757,3.578-10.733l17.067-8.533c3.077-1.541,6.799-0.938,9.234,1.499   l17.067,17.067C232.452,357.67,228.863,366.4,221.867,366.4z"/>
	<path style="fill:#56677E;" d="M127.993,306.668c-1.525,0-3.067-0.435-4.43-1.345l-20.143-13.428l-12.429,12.429   c-3.124,3.124-8.19,3.124-11.313,0c-3.124-3.124-3.124-8.19,0-11.313l17.067-17.067c2.697-2.697,6.922-3.114,10.094-0.999   l25.6,17.067c3.677,2.45,4.67,7.418,2.219,11.093C133.115,305.417,130.578,306.668,127.993,306.668z"/>
	<path style="fill:#56677E;" d="M76.8,340.8c-6.995,0-10.586-8.729-5.657-13.657l17.067-17.067c2.142-2.143,5.312-2.891,8.187-1.933   l25.6,8.533c4.192,1.397,6.457,5.929,5.06,10.119c-1.397,4.192-5.929,6.455-10.119,5.06l-20.91-6.97l-13.571,13.57   C80.895,340.019,78.847,340.8,76.8,340.8z"/>
	<path style="fill:#56677E;" d="M85.333,366.4c-6.995,0-10.586-8.729-5.657-13.657l17.067-17.067   c2.435-2.435,6.155-3.039,9.234-1.499l17.067,8.533c3.952,1.975,5.554,6.781,3.578,10.733c-1.977,3.952-6.781,5.555-10.733,3.578   l-11.909-5.955l-12.99,12.99C89.428,365.619,87.38,366.4,85.333,366.4z"/>
</g>
<circle style="fill:#DB6B5E;" cx="153.6" cy="273.067" r="25.6"/>
<ellipse style="fill:#FF8C78;" cx="153.6" cy="332.8" rx="42.667" ry="51.2"/>
<path style="fill:#DB6B5E;" d="M162.133,366.933c-23.564,0-42.667-22.923-42.667-51.2c0-6.068,0.885-11.887,2.5-17.289  c-6.857,9.084-11.034,21.134-11.034,34.355c0,28.277,19.103,51.2,42.667,51.2c18.507,0,34.257-14.143,40.166-33.911  C185.959,360.433,174.679,366.933,162.133,366.933z"/>
<circle style="fill:#FFD6C4;" cx="162.133" cy="315.733" r="17.067"/>
<path style="fill:#D9DDE2;" d="M34.133,486.4V25.6c0-14.139,11.461-25.6,25.6-25.6H25.6C11.461,0,0,11.461,0,25.6v460.8  C0,500.539,11.461,512,25.6,512h34.133C45.595,512,34.133,500.539,34.133,486.4z"/>
<path style="fill:#3CBDE8;" d="M0,486.4C0,500.539,11.461,512,25.6,512h256c14.139,0,25.6-11.461,25.6-25.6v-42.667H0V486.4z"/>
<path style="fill:#2C9DD4;" d="M34.133,486.4v-42.667H0V486.4C0,500.539,11.461,512,25.6,512h34.133  C45.595,512,34.133,500.539,34.133,486.4z"/>
<path style="fill:#3CBDE8;" d="M281.6,0h-256C11.461,0,0,11.461,0,25.6v76.8h307.2V25.6C307.2,11.461,295.739,0,281.6,0z"/>
<path style="fill:#2C9DD4;" d="M59.733,0H25.6C11.461,0,0,11.461,0,25.6v76.8h34.133V25.6C34.133,11.461,45.595,0,59.733,0z"/>
<circle style="fill:#7C899B;" cx="153.6" cy="51.2" r="25.6"/>
<circle style="fill:#69788D;" cx="153.6" cy="51.2" r="17.067"/>
<path style="fill:#56677E;" d="M170.667,485.867h-34.133c-4.418,0-8-3.582-8-8c0-4.418,3.582-8,8-8h34.133c4.418,0,8,3.582,8,8  C178.667,482.285,175.085,485.867,170.667,485.867z"/>
<g>
</g>
<g>
</g>
<g>
</g>
<g>
</g>
<g>
</g>
<g>
</g>
<g>
</g>
<g>
</g>
<g>
</g>
<g>
</g>
<g>
</g>
<g>
</g>
<g>
</g>
<g>
</g>
<g>
</g>
</svg>
